<svg width="1400" height="1000" xmlns="http://www.w3.org/2000/svg">
  <defs>
    <style>
      .title { font-family: Arial, sans-serif; font-size: 24px; font-weight: bold; fill: #2c3e50; }
      .section-title { font-family: Arial, sans-serif; font-size: 16px; font-weight: bold; fill: #34495e; }
      .service-text { font-family: Arial, sans-serif; font-size: 12px; fill: #2c3e50; }
      .small-text { font-family: Arial, sans-serif; font-size: 10px; fill: #7f8c8d; }
      .dev-box { fill: #e8f5e8; stroke: #27ae60; stroke-width: 2; }
      .ci-box { fill: #e8f4fd; stroke: #3498db; stroke-width: 2; }
      .deploy-box { fill: #fef9e7; stroke: #f39c12; stroke-width: 2; }
      .monitor-box { fill: #fdf2e9; stroke: #e67e22; stroke-width: 2; }
      .service-box { fill: #f8f9fa; stroke: #6c757d; stroke-width: 1; }
      .arrow { stroke: #34495e; stroke-width: 2; fill: none; marker-end: url(#arrowhead); }
      .data-arrow { stroke: #e74c3c; stroke-width: 2; fill: none; marker-end: url(#arrowhead); }
    </style>
    <marker id="arrowhead" markerWidth="10" markerHeight="7" refX="9" refY="3.5" orient="auto">
      <polygon points="0 0, 10 3.5, 0 7" fill="#34495e" />
    </marker>
  </defs>
  
  <!-- Title -->
  <text x="700" y="30" text-anchor="middle" class="title">Course Selling Platform - Complete Workflow</text>
  
  <!-- Development Phase -->
  <rect x="50" y="60" width="300" height="180" class="dev-box" rx="10"/>
  <text x="200" y="80" text-anchor="middle" class="section-title">Development Phase</text>
  
  <rect x="70" y="100" width="120" height="30" class="service-box" rx="5"/>
  <text x="130" y="120" text-anchor="middle" class="service-text">Code Development</text>
  
  <rect x="210" y="100" width="120" height="30" class="service-box" rx="5"/>
  <text x="270" y="120" text-anchor="middle" class="service-text">Local Testing</text>
  
  <rect x="70" y="150" width="120" height="30" class="service-box" rx="5"/>
  <text x="130" y="170" text-anchor="middle" class="service-text">Git Commit</text>
  
  <rect x="210" y="150" width="120" height="30" class="service-box" rx="5"/>
  <text x="270" y="170" text-anchor="middle" class="service-text">Push to Repo</text>
  
  <text x="70" y="210" class="small-text">• Java Spring Boot Services</text>
  <text x="70" y="225" class="small-text">• React TypeScript Frontend</text>
  
  <!-- CI/CD Pipeline -->
  <rect x="400" y="60" width="500" height="300" class="ci-box" rx="10"/>
  <text x="650" y="80" text-anchor="middle" class="section-title">CI/CD Pipeline (Jenkins)</text>
  
  <!-- Build Phase -->
  <rect x="420" y="100" width="220" height="80" class="service-box" rx="5"/>
  <text x="530" y="120" text-anchor="middle" class="service-text">Build Phase</text>
  <text x="430" y="140" class="small-text">• Maven Build (Backend)</text>
  <text x="430" y="155" class="small-text">• npm Build (Frontend)</text>
  <text x="430" y="170" class="small-text">• Package Applications</text>
  
  <!-- Test Phase -->
  <rect x="660" y="100" width="220" height="80" class="service-box" rx="5"/>
  <text x="770" y="120" text-anchor="middle" class="service-text">Test Phase</text>
  <text x="670" y="140" class="small-text">• Unit Tests (JUnit/Jest)</text>
  <text x="670" y="155" class="small-text">• Integration Tests</text>
  <text x="670" y="170" class="small-text">• E2E Tests (Selenium)</text>
  
  <!-- Quality Assurance -->
  <rect x="420" y="200" width="220" height="80" class="service-box" rx="5"/>
  <text x="530" y="220" text-anchor="middle" class="service-text">Quality Assurance</text>
  <text x="430" y="240" class="small-text">• SonarQube Analysis</text>
  <text x="430" y="255" class="small-text">• Code Coverage</text>
  <text x="430" y="270" class="small-text">• Quality Gates</text>
  
  <!-- Security & Docker -->
  <rect x="660" y="200" width="220" height="80" class="service-box" rx="5"/>
  <text x="770" y="220" text-anchor="middle" class="service-text">Security & Docker</text>
  <text x="670" y="240" class="small-text">• Trivy/Snyk Scanning</text>
  <text x="670" y="255" class="small-text">• Docker Build & Tag</text>
  <text x="670" y="270" class="small-text">• Push to Registry</text>
  
  <!-- Shared Library -->
  <rect x="420" y="300" width="460" height="40" class="service-box" rx="5"/>
  <text x="650" y="325" text-anchor="middle" class="service-text">Jenkins Shared Library Functions</text>
  <text x="430" y="335" class="small-text">buildDockerImage | deployToKubernetes | runTests | sonarQubeAnalysis | notifySlack</text>
  
  <!-- Deployment Phase -->
  <rect x="950" y="60" width="400" height="200" class="deploy-box" rx="10"/>
  <text x="1150" y="80" text-anchor="middle" class="section-title">Deployment Phase</text>
  
  <rect x="970" y="100" width="170" height="60" class="service-box" rx="5"/>
  <text x="1055" y="120" text-anchor="middle" class="service-text">Staging Deploy</text>
  <text x="980" y="140" class="small-text">• Kubernetes Deploy</text>
  <text x="980" y="155" class="small-text">• Smoke Tests</text>
  
  <rect x="1160" y="100" width="170" height="60" class="service-box" rx="5"/>
  <text x="1245" y="120" text-anchor="middle" class="service-text">Production Deploy</text>
  <text x="1170" y="140" class="small-text">• Blue-Green Deploy</text>
  <text x="1170" y="155" class="small-text">• Health Checks</text>
  
  <rect x="970" y="180" width="360" height="60" class="service-box" rx="5"/>
  <text x="1150" y="200" text-anchor="middle" class="service-text">Kubernetes Orchestration</text>
  <text x="980" y="220" class="small-text">• Rolling Updates • Auto-scaling • Service Mesh • Ingress Controllers</text>
  
  <!-- Microservices Architecture -->
  <rect x="50" y="400" width="600" height="250" class="service-box" rx="10"/>
  <text x="350" y="420" text-anchor="middle" class="section-title">Microservices Architecture</text>
  
  <!-- Frontend -->
  <rect x="70" y="440" width="120" height="40" style="fill: #3498db; stroke: #2980b9;" rx="5"/>
  <text x="130" y="465" text-anchor="middle" style="fill: white; font-size: 12px;">React Frontend</text>
  
  <!-- API Gateway -->
  <rect x="220" y="440" width="120" height="40" style="fill: #9b59b6; stroke: #8e44ad;" rx="5"/>
  <text x="280" y="465" text-anchor="middle" style="fill: white; font-size: 12px;">API Gateway</text>
  
  <!-- Eureka -->
  <rect x="370" y="440" width="120" height="40" style="fill: #e67e22; stroke: #d35400;" rx="5"/>
  <text x="430" y="465" text-anchor="middle" style="fill: white; font-size: 12px;">Eureka Server</text>
  
  <!-- Config Server -->
  <rect x="520" y="440" width="120" height="40" style="fill: #1abc9c; stroke: #16a085;" rx="5"/>
  <text x="580" y="465" text-anchor="middle" style="fill: white; font-size: 12px;">Config Server</text>
  
  <!-- Services Row 1 -->
  <rect x="70" y="500" width="100" height="35" style="fill: #27ae60; stroke: #229954;" rx="5"/>
  <text x="120" y="522" text-anchor="middle" style="fill: white; font-size: 11px;">User Service</text>
  
  <rect x="190" y="500" width="100" height="35" style="fill: #27ae60; stroke: #229954;" rx="5"/>
  <text x="240" y="522" text-anchor="middle" style="fill: white; font-size: 11px;">Course Service</text>
  
  <rect x="310" y="500" width="100" height="35" style="fill: #27ae60; stroke: #229954;" rx="5"/>
  <text x="360" y="522" text-anchor="middle" style="fill: white; font-size: 11px;">Payment Service</text>
  
  <!-- Services Row 2 -->
  <rect x="130" y="550" width="100" height="35" style="fill: #27ae60; stroke: #229954;" rx="5"/>
  <text x="180" y="572" text-anchor="middle" style="fill: white; font-size: 11px;">Enrollment</text>
  
  <rect x="250" y="550" width="100" height="35" style="fill: #27ae60; stroke: #229954;" rx="5"/>
  <text x="300" y="572" text-anchor="middle" style="fill: white; font-size: 11px;">Notification</text>
  
  <rect x="370" y="550" width="100" height="35" style="fill: #27ae60; stroke: #229954;" rx="5"/>
  <text x="420" y="572" text-anchor="middle" style="fill: white; font-size: 11px;">Content Delivery</text>
  
  <!-- Data Layer -->
  <rect x="490" y="500" width="80" height="35" style="fill: #e74c3c; stroke: #c0392b;" rx="5"/>
  <text x="530" y="522" text-anchor="middle" style="fill: white; font-size: 11px;">MySQL</text>
  
  <rect x="490" y="550" width="80" height="35" style="fill: #f39c12; stroke: #e67e22;" rx="5"/>
  <text x="530" y="572" text-anchor="middle" style="fill: white; font-size: 11px;">Redis</text>
  
  <rect x="490" y="600" width="80" height="35" style="fill: #8e44ad; stroke: #7d3c98;" rx="5"/>
  <text x="530" y="622" text-anchor="middle" style="fill: white; font-size: 11px;">RabbitMQ</text>
  
  <!-- Monitoring & Observability -->
  <rect x="700" y="400" width="650" height="250" class="monitor-box" rx="10"/>
  <text x="1025" y="420" text-anchor="middle" class="section-title">Monitoring &amp; Observability</text>
  
  <!-- Monitoring Tools -->
  <rect x="720" y="440" width="120" height="40" style="fill: #e67e22; stroke: #d35400;" rx="5"/>
  <text x="780" y="465" text-anchor="middle" style="fill: white; font-size: 12px;">Prometheus</text>
  
  <rect x="860" y="440" width="120" height="40" style="fill: #f39c12; stroke: #e67e22;" rx="5"/>
  <text x="920" y="465" text-anchor="middle" style="fill: white; font-size: 12px;">Grafana</text>
  
  <rect x="1000" y="440" width="120" height="40" style="fill: #9b59b6; stroke: #8e44ad;" rx="5"/>
  <text x="1060" y="465" text-anchor="middle" style="fill: white; font-size: 12px;">AlertManager</text>
  
  <rect x="1140" y="440" width="120" height="40" style="fill: #1abc9c; stroke: #16a085;" rx="5"/>
  <text x="1200" y="465" text-anchor="middle" style="fill: white; font-size: 12px;">Spring Actuator</text>
  
  <!-- Dashboards -->
  <rect x="720" y="500" width="200" height="60" class="service-box" rx="5"/>
  <text x="820" y="520" text-anchor="middle" class="service-text">Jenkins Dashboards</text>
  <text x="730" y="540" class="small-text">• Build Performance</text>
  <text x="730" y="555" class="small-text">• Job Metrics</text>
  
  <rect x="940" y="500" width="200" height="60" class="service-box" rx="5"/>
  <text x="1040" y="520" text-anchor="middle" class="service-text">Application Metrics</text>
  <text x="950" y="540" class="small-text">• Response Times</text>
  <text x="950" y="555" class="small-text">• Error Rates</text>
  
  <rect x="1160" y="500" width="180" height="60" class="service-box" rx="5"/>
  <text x="1250" y="520" text-anchor="middle" class="service-text">Infrastructure</text>
  <text x="1170" y="540" class="small-text">• CPU/Memory</text>
  <text x="1170" y="555" class="small-text">• Network/Disk</text>
  
  <!-- Backup & Security -->
  <rect x="720" y="580" width="300" height="60" class="service-box" rx="5"/>
  <text x="870" y="600" text-anchor="middle" class="service-text">Backup &amp; Security</text>
  <text x="730" y="620" class="small-text">• Automated Jenkins Backups • S3 Storage • Security Scanning</text>
  
  <rect x="1040" y="580" width="300" height="60" class="service-box" rx="5"/>
  <text x="1190" y="600" text-anchor="middle" class="service-text">Notifications</text>
  <text x="1050" y="620" class="small-text">• Slack Alerts • Email Notifications • PagerDuty Integration</text>
  
  <!-- Technology Stack -->
  <rect x="50" y="700" width="1300" height="120" style="fill: #ecf0f1; stroke: #bdc3c7; stroke-width: 2;" rx="10"/>
  <text x="700" y="720" text-anchor="middle" class="section-title">Technology Stack</text>
  
  <text x="70" y="745" class="service-text">Frontend:</text>
  <text x="150" y="745" class="small-text">React 18, TypeScript, Vite, Axios, Jest</text>
  
  <text x="70" y="765" class="service-text">Backend:</text>
  <text x="150" y="765" class="small-text">Spring Boot 3, Java 17, Maven, Eureka, Spring Cloud Gateway</text>
  
  <text x="70" y="785" class="service-text">DevOps:</text>
  <text x="150" y="785" class="small-text">Jenkins, Docker, Kubernetes, SonarQube, Trivy, Snyk</text>
  
  <text x="70" y="805" class="service-text">Monitoring:</text>
  <text x="150" y="805" class="small-text">Prometheus, Grafana, AlertManager, Spring Actuator</text>
  
  <text x="700" y="745" class="service-text">Database:</text>
  <text x="780" y="745" class="small-text">MySQL 8.0, Redis, RabbitMQ</text>
  
  <text x="700" y="765" class="service-text">Security:</text>
  <text x="780" y="765" class="small-text">JWT, RBAC, TLS/SSL, Container Scanning</text>
  
  <text x="700" y="785" class="service-text">Cloud:</text>
  <text x="780" y="785" class="small-text">AWS S3, Docker Hub/ECR, CloudFlare</text>
  
  <text x="700" y="805" class="service-text">Testing:</text>
  <text x="780" y="805" class="small-text">JUnit 5, TestContainers, Selenium, Cypress</text>
  
  <!-- Key Metrics -->
  <rect x="50" y="850" width="1300" height="120" style="fill: #e8f5e8; stroke: #27ae60; stroke-width: 2;" rx="10"/>
  <text x="700" y="870" text-anchor="middle" class="section-title">Key Success Metrics</text>
  
  <text x="70" y="895" class="service-text">Deployment Frequency:</text>
  <text x="220" y="895" class="small-text">Multiple per day</text>
  
  <text x="350" y="895" class="service-text">Lead Time:</text>
  <text x="430" y="895" class="small-text">&lt; 1 hour</text>
  
  <text x="520" y="895" class="service-text">MTTR:</text>
  <text x="570" y="895" class="small-text">&lt; 15 min</text>
  
  <text x="650" y="895" class="service-text">Change Failure Rate:</text>
  <text x="780" y="895" class="small-text">&lt; 5%</text>
  
  <text x="850" y="895" class="service-text">Uptime:</text>
  <text x="910" y="895" class="small-text">99.9%</text>
  
  <text x="70" y="915" class="service-text">Build Success Rate:</text>
  <text x="200" y="915" class="small-text">&gt; 95%</text>
  
  <text x="300" y="915" class="service-text">Test Coverage:</text>
  <text x="400" y="915" class="small-text">&gt; 80%</text>
  
  <text x="500" y="915" class="service-text">Security Scan Pass:</text>
  <text x="630" y="915" class="small-text">100%</text>
  
  <text x="730" y="915" class="service-text">Performance:</text>
  <text x="820" y="915" class="small-text">Response &lt; 200ms</text>
  
  <!-- Workflow Arrows -->
  <line x1="350" y1="150" x2="400" y2="150" class="arrow"/>
  <line x1="900" y1="150" x2="950" y2="150" class="arrow"/>
  <line x1="1150" y1="260" x2="1150" y2="400" class="arrow"/>
  
  <!-- Data flow arrows -->
  <line x1="190" y1="460" x2="220" y2="460" class="data-arrow"/>
  <line x1="340" y1="460" x2="370" y2="460" class="data-arrow"/>
  <line x1="490" y1="460" x2="520" y2="460" class="data-arrow"/>
  
  <!-- Monitoring arrows -->
  <line x1="650" y1="520" x2="700" y2="520" class="data-arrow"/>
  <line x1="650" y1="540" x2="700" y2="540" class="data-arrow"/>
</svg>